<?xml version="1.0" standalone="no"?>
<svg viewBox="0 0 200 200" xmlns="http://www.w3.org/2000/svg">
  <path fill="#DFD3EB" d="M43.1,-58.4C56.7,-49.5,69.1,-38,77.1,-22.8C85.1,-7.6,88.8,11.2,81.9,24.7C74.9,38.3,57.3,46.5,41.9,57.6C26.5,68.7,13.2,82.6,-0.6,83.5C-14.5,84.3,-28.9,72,-39.9,59.5C-50.8,46.9,-58.2,34.1,-64.2,19.9C-70.2,5.6,-74.8,-10.1,-70.4,-22.7C-66.1,-35.3,-52.8,-44.8,-39.5,-53.8C-26.3,-62.8,-13.2,-71.3,0.8,-72.4C14.8,-73.6,29.6,-67.3,43.1,-58.4Z" transform="translate(100 100)" />
</svg>
