<?xml version="1.0" standalone="no"?>
<!DOCTYPE svg PUBLIC "-//W3C//DTD SVG 20010904//EN"
 "http://www.w3.org/TR/2001/REC-SVG-20010904/DTD/svg10.dtd">
<svg version="1.0" xmlns="http://www.w3.org/2000/svg"
 width="4375.000000pt" height="4375.000000pt" viewBox="0 0 4375.000000 4375.000000"
 preserveAspectRatio="xMidYMid meet">

<g transform="translate(0.000000,4375.000000) scale(0.100000,-0.100000)"
fill="#000000" stroke="none">
<path d="M32585 39895 c-198 -36 -300 -82 -406 -182 -77 -73 -141 -157 -184
-242 -190 -378 -236 -1004 -113 -1536 27 -117 45 -151 112 -213 91 -82 212
-114 350 -92 38 6 73 13 77 15 4 3 -18 80 -48 172 -64 196 -125 437 -155 613
-31 175 -32 485 -2 575 l20 60 29 -43 c81 -122 301 -226 569 -269 131 -20 352
-14 414 12 24 9 45 15 48 13 9 -10 33 -145 43 -247 19 -184 8 -518 -25 -780
l-7 -53 64 7 c272 31 420 244 445 638 18 289 -73 695 -222 996 -192 388 -457
573 -818 570 -66 0 -152 -7 -191 -14z"/>
<path d="M34522 34899 c-42 -47 -117 -84 -236 -114 -96 -24 -381 -65 -454 -65
-24 0 -52 -5 -62 -10 -36 -19 -186 -230 -200 -281 l-9 -29 62 -1 c60 -1 123
-3 180 -7 24 -2 27 -6 27 -35 0 -22 -8 -41 -22 -54 -22 -20 -277 -188 -345
-228 -18 -11 -33 -24 -33 -30 0 -7 -23 -10 -62 -8 -35 2 -243 7 -463 13 -220
6 -467 13 -550 16 -82 2 -440 14 -794 25 -354 10 -648 22 -653 25 -27 17 -184
-129 -242 -225 -88 -144 -136 -356 -136 -598 l0 -93 -10209 0 -10209 0 -4
-112 c-8 -234 -3 -13147 5 -13155 5 -4 1686 -9 3737 -11 l3729 -3 20 23 c12
12 21 25 21 30 0 4 -1678 8 -3730 8 l-3730 0 0 6580 0 6580 10184 0 10183 0 7
-192 c4 -106 12 -267 17 -358 14 -240 21 -956 10 -1089 -6 -63 -16 -155 -22
-204 -13 -85 -15 -91 -49 -116 -19 -14 -74 -65 -122 -113 -77 -77 -93 -100
-139 -195 -84 -176 -185 -304 -320 -404 -138 -102 -158 -233 -49 -314 64 -47
119 -58 269 -53 202 7 306 51 360 152 38 71 165 241 233 313 60 62 112 93 128
77 5 -5 15 -50 24 -100 20 -117 30 -144 55 -144 46 0 50 15 67 254 3 48 12
103 20 122 16 37 18 231 4 324 -8 56 4 133 95 615 44 231 124 743 156 1000 7
55 12 173 12 263 l-1 162 108 0 109 0 -10 -32 c-14 -51 -12 -216 4 -283 8 -33
26 -85 40 -115 97 -217 260 -948 442 -1995 36 -204 65 -385 65 -402 0 -16 -11
-47 -25 -67 -89 -131 -155 -330 -155 -469 -1 -111 -57 -313 -120 -427 -19 -35
-19 -35 -20 432 l0 467 -300 -180 -301 -180 -315 111 -316 111 -591 -36 c-326
-20 -606 -39 -624 -43 -28 -6 -132 -95 -649 -554 -20 -18 -25 -15 -324 192
-186 129 -308 206 -314 201 -32 -24 -623 -485 -632 -492 -6 -5 -131 32 -310
91 -164 55 -304 98 -310 96 -6 -2 -142 -108 -301 -234 -160 -127 -299 -236
-310 -243 -18 -11 -61 2 -329 99 -170 62 -313 112 -317 112 -4 0 -148 -102
-320 -227 -172 -125 -321 -228 -332 -230 -11 -2 -155 23 -320 56 l-301 59
-307 141 -308 140 -617 -391 c-339 -215 -621 -395 -627 -400 -5 -4 2102 -8
4683 -8 l4692 0 0 241 0 241 23 -6 c45 -14 143 -18 177 -8 70 21 250 100 298
131 99 63 171 165 172 242 0 43 89 401 120 481 34 92 38 89 60 -40 16 -94 25
-112 55 -112 31 0 33 8 38 175 3 99 10 148 27 201 l23 70 -21 82 c-12 45 -48
148 -82 228 l-60 145 0 182 c-1 910 -93 1676 -245 2057 -19 47 -31 88 -27 91
4 4 45 19 92 34 47 15 146 46 220 70 74 24 242 77 373 119 l238 76 770 0 769
0 0 -6580 0 -6580 -3595 0 c-1977 0 -3595 -2 -3595 -4 0 -3 4 -16 10 -30 l10
-26 3610 0 3610 0 2 2828 c1 2212 0 9792 -2 10335 l0 107 -497 1 c-274 1 -585
4 -692 8 l-193 6 314 102 c276 90 328 111 427 168 301 171 471 366 553 635 26
85 36 313 18 414 -17 95 -52 201 -100 300 -57 120 -58 121 -98 75z m-2861
-1507 c-43 -43 -93 -104 -111 -135 l-32 -57 -119 0 c-135 0 -124 -9 -132 105
l-5 61 232 51 c127 28 234 52 239 52 4 1 -28 -34 -72 -77z"/>
<path d="M23242 26503 l3 -258 303 -3 302 -2 0 260 0 260 -305 0 -305 0 2
-257z"/>
<path d="M24130 26690 l0 -30 690 0 690 0 0 30 0 30 -690 0 -690 0 0 -30z"/>
<path d="M25690 26690 l0 -30 545 0 545 0 0 30 0 30 -545 0 -545 0 0 -30z"/>
<path d="M28140 26690 l0 -30 410 0 410 0 0 30 0 30 -410 0 -410 0 0 -30z"/>
<path d="M29070 26690 l0 -30 860 0 860 0 0 30 0 30 -860 0 -860 0 0 -30z"/>
<path d="M24130 26500 l0 -30 290 0 290 0 0 30 0 30 -290 0 -290 0 0 -30z"/>
<path d="M24970 26500 l0 -30 795 0 795 0 0 30 0 30 -795 0 -795 0 0 -30z"/>
<path d="M28140 26500 l0 -30 695 0 695 0 0 30 0 30 -695 0 -695 0 0 -30z"/>
<path d="M29720 26500 l0 -30 425 0 425 0 0 30 0 30 -425 0 -425 0 0 -30z"/>
<path d="M17450 26356 c-703 -360 -986 -504 -1155 -591 -99 -51 -297 -152
-440 -225 -143 -73 -383 -195 -532 -272 l-273 -139 -262 134 c-145 74 -594
302 -998 507 -404 205 -894 453 -1087 552 l-353 179 -285 -146 -286 -147 213
-121 c117 -66 517 -293 888 -505 1386 -790 2116 -1205 2146 -1219 30 -15 33
-14 160 57 71 40 170 96 219 125 50 28 200 114 335 190 393 222 615 348 1870
1060 770 437 722 409 703 422 -9 7 -141 75 -292 151 l-276 138 -295 -150z"/>
<path d="M24130 26315 l0 -35 490 0 490 0 0 35 0 35 -490 0 -490 0 0 -35z"/>
<path d="M25320 26315 l0 -35 478 2 477 3 0 30 0 30 -477 3 -478 2 0 -35z"/>
<path d="M28144 26336 c-3 -8 -4 -23 -2 -33 3 -17 18 -18 203 -18 l200 0 0 30
0 30 -198 3 c-166 2 -198 0 -203 -12z"/>
<path d="M28800 26315 l0 -35 745 0 745 0 0 35 0 35 -745 0 -745 0 0 -35z"/>
<path d="M7585 25364 c-44 -5 -349 -52 -2600 -399 -1642 -253 -1658 -255
-1653 -261 2 -2 591 -94 1309 -204 717 -111 1666 -257 2109 -326 710 -109 820
-124 935 -124 117 -1 201 10 833 107 l702 107 0 443 c0 286 -4 443 -10 443 -5
0 -317 47 -692 105 -653 101 -824 121 -933 109z"/>
<path d="M23370 25090 l0 -30 340 0 340 0 0 30 0 30 -340 0 -340 0 0 -30z"/>
<path d="M24150 25090 l0 -30 725 0 725 0 0 30 0 30 -725 0 -725 0 0 -30z"/>
<path d="M23370 24905 l0 -35 935 0 935 0 0 35 0 35 -935 0 -935 0 0 -35z"/>
<path d="M23370 24720 l0 -30 395 0 395 0 0 30 0 30 -395 0 -395 0 0 -30z"/>
<path d="M3230 23440 c0 -835 3 -1251 10 -1255 6 -4 113 -22 238 -41 125 -19
268 -42 317 -50 50 -8 114 -18 142 -23 29 -4 55 -10 58 -12 2 -3 -138 -27
-313 -53 -174 -26 -328 -51 -342 -54 -23 -6 -22 -7 10 -12 19 -3 -17 -6 -80
-7 -195 -2 -353 -40 -470 -113 -72 -45 -139 -78 -215 -105 -74 -27 -181 -138
-227 -235 -49 -102 -62 -165 -56 -269 4 -62 13 -103 32 -148 37 -88 35 -145
-8 -238 -19 -41 -37 -88 -41 -104 -8 -36 9 -92 41 -141 30 -44 30 -82 -1 -148
-30 -65 -31 -91 -5 -167 41 -118 21 -173 -91 -252 -109 -78 -117 -104 -73
-231 32 -94 27 -118 -37 -171 -56 -48 -58 -60 -29 -145 28 -77 17 -110 -56
-173 -29 -26 -56 -55 -60 -65 -3 -11 8 -47 25 -84 36 -78 37 -89 11 -132 -28
-46 -25 -66 15 -96 48 -37 47 -72 -5 -170 -41 -78 -49 -120 -28 -149 7 -8 45
-33 83 -55 88 -49 104 -74 85 -131 -24 -73 20 -201 69 -201 26 0 44 25 85 115
44 95 63 120 83 104 7 -6 13 -17 13 -24 0 -7 6 -18 14 -24 18 -15 46 -3 89 37
23 22 27 34 27 76 0 28 -9 83 -20 121 -26 90 -25 105 5 165 32 62 32 103 0
174 -14 31 -25 66 -25 77 0 10 24 43 54 72 94 92 111 155 85 316 -19 112 14
151 163 191 165 44 208 75 208 148 0 50 -32 121 -89 197 -79 104 -88 140 -61
244 24 96 25 137 4 212 -14 50 -20 59 -45 64 -60 13 -168 181 -188 290 -13 71
3 138 41 170 16 14 35 25 41 25 28 0 78 -43 111 -94 33 -52 38 -56 74 -56 104
0 218 163 230 327 l5 73 37 -34 c71 -64 161 -85 456 -105 211 -15 288 -52 309
-149 4 -18 10 -30 14 -27 5 2 -1 -39 -12 -93 -19 -94 -19 -100 -2 -177 9 -44
32 -122 51 -174 41 -114 38 -121 -52 -121 -49 0 -68 -4 -83 -19 -19 -19 -63
-144 -101 -286 -35 -131 -66 -146 -218 -99 -56 17 -88 22 -94 16 -25 -25 -37
-206 -18 -256 5 -15 17 -26 27 -26 43 0 96 -24 133 -59 36 -34 40 -43 40 -87
0 -33 7 -61 23 -86 21 -34 74 -85 81 -77 2 2 30 56 61 119 101 203 230 388
376 544 46 49 85 92 87 97 2 4 -9 9 -25 12 -23 3 -22 4 9 6 31 1 54 15 140 87
125 105 293 218 438 293 103 54 107 57 98 81 -24 63 18 170 83 209 41 25 142
44 191 36 47 -8 109 -60 128 -105 9 -21 18 -29 29 -26 203 59 615 78 876 42
764 -108 1437 -597 1775 -1291 118 -242 187 -470 217 -717 16 -130 18 -138 39
-138 22 0 910 135 952 145 17 4 22 1 22 -14 0 -10 -6 -21 -12 -23 -7 -3 -230
-38 -495 -79 l-483 -74 -1 -135 c0 -74 -2 -142 -3 -150 -2 -8 -6 -51 -10 -95
-27 -336 -177 -752 -379 -1050 -599 -886 -1687 -1254 -2707 -918 -218 72 -457
197 -642 336 -49 37 -91 67 -93 67 -2 0 11 -33 30 -72 42 -93 74 -186 82 -244
3 -25 11 -48 17 -50 6 -2 684 -108 1506 -235 1463 -227 1498 -232 1655 -233
l160 -1 2103 325 c1156 179 2102 327 2102 331 0 3 -143 27 -317 54 -175 26
-324 51 -331 55 -7 3 67 19 165 34 98 15 265 40 372 57 106 16 197 32 202 35
5 3 9 108 9 233 0 125 3 397 7 604 l6 377 679 0 679 0 -3 48 -3 47 -1845 5
c-1675 5 -1849 6 -1885 21 -123 50 -190 93 -269 172 -92 93 -144 184 -176 307
-18 73 -19 147 -21 2715 -1 1452 -1 2651 -1 2665 0 22 -1 23 -13 7 -18 -25
-23 -21 -21 13 1 17 0 30 -3 31 -3 0 -14 2 -23 4 -15 3 -18 -5 -19 -43 l-2
-47 -7 55 c-5 30 -8 120 -9 201 l-1 145 -337 -53 c-186 -29 -500 -78 -698
-109 -403 -63 -537 -71 -715 -40 -52 8 -255 40 -450 71 -195 30 -530 82 -745
115 -214 33 -550 85 -745 115 -195 30 -411 64 -480 75 -69 10 -494 76 -945
145 -451 68 -832 129 -847 134 l-28 9 0 -1248z m6027 348 c-3 -8 -6 -5 -6 6
-1 11 2 17 5 13 3 -3 4 -12 1 -19z m-4717 -113 c80 -40 114 -160 70 -245 -25
-49 -76 -84 -157 -106 -77 -21 -125 -10 -182 42 -50 45 -65 81 -59 148 8 96
67 153 177 172 70 12 110 9 151 -11z m655 -86 c77 -21 128 -91 128 -174 0 -96
-50 -153 -165 -186 -74 -22 -77 -22 -122 -5 -64 25 -102 59 -121 111 -23 58
-13 120 25 174 36 49 58 61 135 77 78 16 74 16 120 3z m3920 -126 c-10 -42
-32 -61 -83 -72 -124 -26 -707 -112 -727 -107 -29 7 -72 42 -63 51 3 4 20 -3
37 -16 l30 -22 368 57 c206 32 378 64 390 72 13 8 25 25 29 39 3 14 11 25 16
25 6 0 7 -11 3 -27z m-5568 -454 c13 -13 66 -22 1003 -170 620 -97 769 -118
789 -109 22 10 23 9 11 -4 -7 -9 -24 -16 -38 -16 -13 0 -409 61 -879 135 -470
74 -858 135 -864 135 -25 0 -49 41 -48 83 l2 42 6 -43 c4 -23 12 -47 18 -53z
m2164 31 c5 0 9 -71 9 -166 0 -185 8 -217 60 -248 21 -12 187 -43 523 -97 270
-43 498 -80 505 -81 6 -1 12 -5 12 -10 0 -4 6 -8 14 -8 7 0 25 -9 38 -20 14
-10 28 -16 32 -13 3 3 6 1 6 -5 0 -6 8 -12 18 -15 36 -8 -87 6 -173 19 -49 8
-287 46 -528 84 -241 39 -446 74 -455 79 -28 15 -70 64 -81 94 -12 32 -15 399
-3 411 4 4 8 1 10 -8 2 -9 8 -16 13 -16z m3409 -109 c0 -24 -21 -61 -42 -75
-22 -14 -695 -126 -758 -126 -30 0 -90 43 -78 55 4 4 19 -2 34 -14 15 -11 35
-21 46 -21 57 0 725 112 745 125 12 9 25 26 29 40 6 24 24 35 24 16z m0 -564
c0 -18 -28 -55 -51 -68 -22 -11 -692 -119 -744 -119 -21 0 -44 9 -62 24 -35
30 -24 46 13 17 15 -11 38 -21 53 -21 14 0 183 25 375 55 356 56 377 62 391
106 7 21 25 26 25 6z m-5677 -444 c-7 -2 -19 -2 -25 0 -7 3 -2 5 12 5 14 0 19
-2 13 -5z m2085 -319 l2047 -316 160 6 c138 4 253 19 823 109 639 100 663 103
660 83 -3 -22 -9 -23 -423 -85 -38 -6 -113 -17 -165 -25 -999 -156 -890 -151
-1439 -66 -212 32 -548 84 -746 115 -198 30 -504 78 -680 105 -176 28 -378 59
-450 70 -71 11 -157 25 -190 30 -33 5 -370 57 -750 115 -502 77 -715 114 -780
135 -49 15 -99 30 -110 33 -11 2 -16 5 -12 6 5 0 929 -141 2055 -315z m3592
-884 c0 -25 -31 -68 -57 -78 -25 -10 -712 -122 -748 -122 -15 0 -78 50 -72 57
3 2 20 -5 40 -17 l35 -21 358 56 c198 31 370 60 382 66 13 5 29 23 35 39 11
29 27 41 27 20z m0 -549 c0 -24 -21 -61 -42 -74 -29 -19 -741 -131 -774 -123
-26 7 -69 44 -61 53 3 2 19 -5 36 -18 l30 -22 368 57 c208 33 378 64 390 72
13 8 25 25 29 39 6 24 24 35 24 16z m0 -550 c0 -24 -21 -61 -42 -75 -22 -14
-692 -126 -756 -126 -18 0 -43 10 -59 24 -35 30 -24 46 13 17 15 -11 36 -21
48 -21 59 0 723 112 743 125 12 9 25 26 29 40 6 24 24 35 24 16z m182 -1646
c23 -30 49 -31 185 -9 53 8 103 12 112 8 18 -7 -169 -42 -235 -43 -44 -1 -94
28 -94 55 0 21 10 17 32 -11z m-182 -15 c0 -26 -31 -68 -57 -78 -54 -21 -741
-122 -765 -113 -28 10 -66 51 -49 51 6 0 24 -9 39 -20 l27 -20 355 56 c195 30
367 60 382 66 15 5 33 23 40 39 13 29 28 39 28 19z m2657 -132 c-6 -45 -31
-74 -71 -83 -11 -3 -421 -68 -911 -145 -489 -77 -1002 -158 -1140 -180 -305
-50 -327 -51 -360 -20 -22 21 -34 50 -20 50 3 0 16 -12 29 -27 18 -20 32 -27
57 -26 29 1 1138 175 2084 327 305 49 315 53 315 117 0 16 5 29 11 29 8 0 10
-14 6 -42z m-2657 -418 c0 -25 -31 -68 -57 -78 -15 -6 -190 -37 -388 -68 -351
-55 -361 -56 -392 -39 -17 10 -34 24 -37 31 -7 18 -3 18 37 -6 l35 -21 359 56
c197 31 369 60 381 66 13 5 29 23 35 39 11 29 27 41 27 20z m2660 -119 c0 -27
-7 -49 -23 -67 -26 -30 66 -13 -1147 -204 -212 -34 -428 -68 -480 -76 -52 -8
-120 -19 -150 -24 -30 -4 -184 -29 -342 -54 -158 -25 -295 -43 -305 -39 -26 9
-63 44 -63 60 0 20 18 16 25 -5 15 -48 4 -49 967 103 1559 247 1459 229 1480
255 10 12 18 37 18 56 0 19 5 34 10 34 6 0 10 -18 10 -39z m-2660 -430 c0 -24
-21 -61 -42 -75 -29 -18 -740 -130 -774 -122 -26 7 -69 44 -61 53 3 2 19 -5
36 -18 l31 -22 367 57 c208 32 378 64 390 72 13 8 25 25 29 39 6 24 24 35 24
16z"/>
<path d="M22620 24160 l0 -260 255 0 255 0 0 260 0 260 -255 0 -255 0 0 -260z"/>
<path d="M23370 24345 l0 -35 340 0 340 0 0 35 0 35 -340 0 -340 0 0 -35z"/>
<path d="M24150 24345 l0 -35 726 0 725 0 -3 33 -3 32 -722 3 -723 2 0 -35z"/>
<path d="M36006 24288 c3 -4 -11 -8 -30 -8 -31 0 -176 -19 -271 -35 l-30 -5
-2 -122 c0 -68 -2 -205 -4 -305 l-3 -181 -29 4 c-17 2 -32 6 -35 9 -6 5 23 9
48 5 8 -1 11 2 7 6 -11 11 -67 14 -68 3 -4 -30 -3 -69 2 -69 4 0 2 -21 -2 -47
-5 -27 -10 -1168 -11 -2538 l-3 -2490 -28 -80 c-60 -170 -176 -306 -328 -385
-144 -75 219 -68 -4071 -72 -2126 -2 -3869 -6 -3872 -9 -3 -3 0 -23 7 -45 l14
-39 2009 -6 c1105 -3 2226 -7 2491 -8 l483 -1 2 -307 3 -306 35 -18 c19 -9 62
-20 94 -23 33 -3 87 -10 120 -15 75 -12 196 -29 256 -37 128 -17 119 -20 -165
-59 -154 -21 -289 -41 -301 -45 -11 -5 -25 -23 -31 -44 -8 -25 -12 -254 -12
-724 l-2 -688 23 -21 c15 -13 43 -23 82 -28 32 -4 68 -8 80 -10 27 -5 143 -21
277 -40 59 -8 167 -15 240 -15 171 0 636 -17 844 -30 392 -26 664 -63 745
-103 50 -24 47 -14 49 -188 l1 -67 68 -16 c82 -21 112 -39 112 -69 0 -22 8
-24 588 -105 331 -46 621 -82 664 -82 61 0 2148 284 2244 305 21 5 21 11 27
202 5 204 18 303 62 475 98 383 330 751 645 1023 l55 47 -50 -7 c-27 -3 -61
-8 -75 -10 -14 -2 -61 -9 -105 -15 -44 -6 -107 -15 -140 -20 -33 -5 -78 -11
-100 -14 -123 -16 -353 -48 -435 -61 -52 -8 -212 -30 -355 -50 -143 -20 -368
-51 -500 -70 -538 -76 -752 -106 -790 -112 -519 -74 -476 -74 -990 3 -95 14
-1466 208 -1550 220 -22 3 -67 9 -100 14 -58 9 -168 24 -250 36 -22 3 -65 9
-95 14 -30 5 -80 12 -110 15 -30 3 -62 8 -70 10 -8 2 -37 6 -65 10 -27 3 -77
10 -110 15 -33 5 -80 12 -105 15 -25 3 -70 10 -100 15 -30 5 -77 11 -105 15
-27 3 -61 7 -75 10 -14 2 -41 6 -60 9 -44 6 -188 26 -215 31 -11 1 -63 9 -115
16 -52 7 -101 17 -107 22 -22 17 -14 26 15 16 15 -5 835 -122 1822 -261 1499
-210 1813 -251 1905 -251 87 1 424 45 1596 211 l1486 209 64 44 c35 24 106 67
157 95 l92 51 -74 12 c-41 6 -100 14 -130 17 -31 4 -54 9 -52 11 2 3 136 24
298 47 281 41 294 43 305 67 10 18 13 187 13 717 l0 692 -22 -14 c-13 -8 -50
-17 -83 -21 -33 -4 -85 -10 -115 -15 -30 -5 -73 -12 -95 -14 -22 -3 -105 -15
-185 -26 -80 -12 -158 -23 -175 -25 -16 -3 -145 -21 -285 -40 -140 -20 -363
-51 -495 -70 -132 -19 -355 -50 -495 -70 -140 -20 -268 -38 -285 -40 -16 -3
-176 -25 -355 -50 -179 -25 -404 -57 -500 -71 -96 -14 -188 -27 -205 -29 -16
-3 -110 -16 -207 -30 -97 -14 -214 -25 -259 -25 -115 0 -509 54 -509 70 0 19
23 18 216 -10 109 -16 239 -30 287 -30 63 0 622 75 1910 255 1002 141 1828
257 1835 260 21 8 14 44 -10 50 -13 3 -194 29 -403 58 -314 44 -372 55 -335
61 25 4 200 30 390 57 239 34 350 54 360 65 13 13 15 108 17 722 1 389 -1 701
-3 695 -6 -14 -56 -29 -129 -38 -77 -9 -333 -44 -400 -55 -33 -5 -78 -11 -100
-14 -22 -3 -184 -26 -360 -51 -176 -25 -336 -47 -355 -50 -29 -4 -236 -33
-355 -50 -16 -3 -129 -19 -250 -35 -121 -17 -233 -33 -250 -35 -16 -3 -176
-25 -355 -50 -179 -25 -401 -57 -495 -71 -93 -13 -235 -34 -315 -44 -80 -11
-172 -25 -205 -32 -140 -26 -546 5 -553 43 -3 14 9 14 120 -3 248 -38 169 -47
2148 231 987 138 1805 254 1818 257 26 5 40 30 25 45 -5 5 -144 29 -309 53
-164 24 -297 45 -294 46 7 3 41 8 328 49 145 22 269 44 275 50 9 9 13 197 15
717 l2 705 -22 -15 c-13 -7 -45 -17 -73 -21 -27 -3 -63 -8 -80 -11 -16 -2 -97
-13 -180 -24 -82 -11 -177 -25 -210 -30 -33 -5 -78 -11 -100 -14 -54 -7 -522
-73 -610 -86 -38 -5 -86 -12 -105 -15 -60 -8 -466 -65 -645 -90 -93 -13 -285
-40 -425 -60 -321 -45 -246 -35 -740 -106 -435 -63 -619 -78 -725 -59 -27 5
-89 14 -137 20 -63 9 -88 16 -88 26 0 17 -2 18 155 -6 72 -11 170 -20 220 -20
63 0 611 73 1910 255 1001 141 1826 258 1833 260 21 8 14 44 -10 50 -20 4
-571 83 -602 86 -11 1 164 28 449 69 92 13 156 27 165 36 13 13 15 109 18 720
2 624 1 704 -12 691 -14 -14 -74 -27 -186 -42 -51 -6 -288 -40 -395 -55 -38
-5 -86 -12 -105 -15 -19 -3 -132 -18 -250 -35 -118 -17 -231 -32 -250 -35 -19
-3 -145 -20 -280 -39 -135 -19 -441 -62 -680 -95 -239 -34 -462 -65 -495 -71
-33 -5 -78 -11 -100 -14 -22 -3 -229 -32 -460 -65 -539 -77 -535 -77 -730 -51
-177 23 -195 27 -195 42 0 12 39 9 239 -17 152 -20 160 -20 576 39 138 19 428
60 645 91 217 31 890 125 1495 210 605 85 1115 157 1133 160 34 6 52 29 36 45
-5 5 -493 77 -1084 160 -591 84 -1232 174 -1425 201 -862 122 -1135 159 -1169
159 -20 0 -36 3 -36 8 0 4 -18 7 -39 7 -22 1 -37 -3 -35 -7z m-358 -673 c6 0
12 -4 12 -10 0 -13 -23 -13 -32 0 -5 6 -8 2 -8 -9 0 -11 -3 -17 -6 -13 -3 3
-3 15 1 28 4 12 10 18 14 13 3 -5 12 -9 19 -9z m3026 -572 c24 -17 52 -50 69
-83 25 -47 28 -63 24 -108 -14 -136 -156 -226 -281 -178 -180 69 -180 311 -1
393 48 22 140 10 189 -24z m-797 -89 c47 -35 91 -101 98 -147 19 -124 -83
-240 -210 -240 -195 0 -281 263 -122 372 59 39 64 41 139 38 50 -2 75 -8 95
-23z m1583 -1478 c46 -30 90 -100 97 -154 25 -185 -212 -306 -349 -177 -113
107 -79 285 67 352 46 21 138 10 185 -21z m-1600 -178 c51 -26 105 -99 116
-156 9 -46 -10 -117 -41 -158 -31 -41 -118 -84 -167 -84 -78 0 -155 51 -189
125 -81 174 110 359 281 273z m1586 -1478 c64 -32 114 -114 114 -188 -1 -120
-135 -229 -249 -203 -64 14 -104 43 -138 101 -61 101 -37 209 61 277 42 28 56
33 109 33 41 0 75 -7 103 -20z m-772 -107 c24 -17 52 -50 69 -83 25 -47 28
-63 24 -109 -14 -136 -162 -227 -285 -175 -146 60 -178 250 -60 349 53 45 87
56 152 51 44 -3 69 -12 100 -33z m-31 -1697 c42 -17 104 -89 117 -135 16 -57
12 -93 -15 -147 -74 -145 -266 -159 -359 -26 -63 89 -41 220 47 281 23 15 49
31 57 34 29 11 121 7 153 -7z m-763 -110 c75 -49 115 -154 90 -232 -19 -59
-47 -92 -103 -124 -214 -123 -423 177 -235 335 52 44 87 56 151 51 41 -3 70
-12 97 -30z m-25 -1651 c37 -15 66 -42 93 -87 83 -135 -20 -308 -183 -308
-113 0 -196 80 -203 195 -9 158 144 262 293 200z"/>
<path d="M23370 24160 l0 -30 585 0 585 0 0 30 0 30 -585 0 -585 0 0 -30z"/>
<path d="M24690 24160 l0 -30 360 0 360 0 0 30 0 30 -360 0 -360 0 0 -30z"/>
<path d="M23370 23970 l0 -30 170 0 170 0 0 30 0 30 -170 0 -170 0 0 -30z"/>
<path d="M23920 23970 l0 -30 625 0 625 0 0 30 0 30 -625 0 -625 0 0 -30z"/>
<path d="M31265 23441 c-42 -18 -60 -50 -60 -107 l0 -54 -394 -394 -395 -395
-42 6 c-30 4 -50 0 -72 -12 l-30 -18 -214 113 c-561 297 -548 289 -548 318 0
45 -34 90 -78 103 -33 9 -45 9 -75 -6 -48 -23 -73 -75 -59 -123 8 -26 8 -39
-1 -52 -7 -9 -184 -224 -395 -477 l-383 -461 -57 0 c-31 1 -67 -1 -78 -3 -17
-3 -104 75 -407 369 l-385 372 5 38 c6 44 -16 95 -46 112 -11 5 -38 10 -61 10
-60 0 -100 -41 -100 -104 l0 -45 -382 -298 c-239 -185 -391 -297 -403 -296
-28 2 -85 15 -85 18 0 2 21 56 46 121 76 195 97 288 98 439 1 116 -2 136 -23
182 -21 49 -99 134 -131 145 -11 3 -12 20 -1 107 7 57 11 104 9 106 -2 2 -30
-16 -62 -41 -33 -24 -62 -44 -66 -44 -3 0 -12 17 -19 38 -8 20 -29 60 -47 87
-40 61 -128 158 -118 130 9 -25 18 -155 11 -155 -3 0 -39 18 -80 40 -165 89
-320 127 -466 116 -191 -16 -349 -99 -622 -329 -227 -191 -309 -237 -420 -239
-52 -1 -57 -3 -49 -18 22 -42 123 -111 190 -130 23 -7 21 -9 -30 -33 -59 -28
-155 -51 -257 -63 -35 -3 -63 -8 -63 -11 0 -22 65 -120 113 -171 109 -113 214
-156 387 -156 172 0 341 48 611 175 82 38 153 69 159 69 18 0 11 -20 -39 -111
-27 -49 -47 -89 -43 -89 4 1 97 29 207 64 l200 63 6 -76 c6 -87 26 -135 80
-193 42 -45 54 -87 54 -195 0 -128 53 -52 85 122 6 33 13 70 16 83 9 42 98 59
135 26 49 -44 -5 -241 -93 -340 -31 -35 -35 -46 -37 -99 -1 -33 -4 -80 -7
-105 l-5 -45 44 48 c75 82 116 161 153 295 3 9 10 7 26 -7 32 -30 92 -32 134
-5 26 18 49 75 41 105 -4 17 62 72 384 322 246 190 396 301 407 298 9 -2 40
-4 68 -5 l52 -1 391 -378 c353 -342 391 -382 391 -411 0 -61 45 -105 108 -106
62 0 102 40 102 104 0 46 2 48 402 528 l401 482 41 1 c23 1 55 7 71 14 29 12
43 5 405 -187 l375 -200 6 -42 c8 -59 44 -90 105 -90 37 0 51 6 76 30 26 27
29 36 26 80 l-3 50 399 399 398 398 44 -5 c54 -6 90 15 110 65 17 40 7 89 -26
118 -22 19 -86 29 -115 16z"/>
<path d="M19551 23103 c-18 -9 -43 -31 -54 -48 l-21 -32 -17 21 c-41 50 -180
3 -204 -69 -5 -17 -10 -31 -11 -33 0 -1 -17 4 -37 13 -22 9 -48 12 -68 8 -43
-8 -99 -66 -99 -102 0 -28 -1 -29 -37 -20 -111 25 -203 -69 -191 -193 5 -44 1
-56 -28 -100 -30 -44 -34 -58 -34 -113 0 -50 6 -74 29 -118 l29 -56 -23 -15
c-33 -21 -49 -78 -41 -145 10 -96 25 -131 76 -182 44 -44 48 -52 43 -83 -6
-40 21 -104 63 -149 14 -16 31 -45 36 -65 13 -45 68 -99 111 -108 24 -4 40
-18 62 -52 17 -25 52 -61 79 -79 39 -27 53 -44 65 -81 31 -92 108 -166 183
-178 28 -5 43 -14 57 -38 29 -46 68 -78 140 -115 73 -37 143 -49 194 -32 19 7
60 14 92 16 61 4 136 40 158 76 6 10 35 31 64 45 39 18 60 37 78 68 14 24 25
48 25 55 0 7 15 30 33 52 19 21 39 56 45 78 16 53 15 150 -3 184 -13 25 -12
31 8 70 19 37 22 57 21 157 0 119 -18 235 -35 225 -5 -4 -9 -39 -9 -78 0 -107
-49 -172 -91 -121 -10 12 -24 14 -58 10 -63 -8 -60 -8 -112 0 -49 7 -93 -9
-135 -48 -21 -18 -24 -19 -52 -4 -46 24 -113 20 -154 -7 -29 -20 -43 -23 -96
-19 -71 5 -146 -17 -162 -49 -19 -35 -80 -17 -131 38 -34 36 -53 75 -69 141
-18 77 -40 70 -40 -12 0 -70 -11 -83 -55 -66 -37 14 -78 86 -119 211 -41 123
-41 156 1 189 27 21 107 28 117 11 3 -5 16 -59 27 -120 15 -78 25 -111 35
-111 8 0 14 1 14 3 0 1 7 58 15 127 8 69 15 128 15 132 0 3 13 9 29 13 62 13
151 121 151 183 0 20 2 20 51 -10 75 -47 147 -50 232 -10 l65 30 35 -29 c108
-89 264 -92 355 -6 l23 22 39 -23 c79 -45 183 -17 248 67 22 30 32 54 32 79 1
30 6 41 33 57 101 64 102 186 4 280 -24 22 -53 54 -65 71 -46 67 -163 85 -217
34 -22 -21 -25 -21 -40 -6 -25 24 -81 20 -110 -8 l-23 -23 -17 45 c-10 24 -35
62 -56 83 -69 69 -204 89 -270 40 -17 -12 -30 -17 -34 -11 -13 21 -85 50 -122
50 -21 0 -53 -8 -72 -17z m639 -1562 c-23 -44 -279 -98 -364 -77 -23 6 -86 60
-86 74 0 4 56 5 124 3 134 -3 243 10 297 37 32 16 34 16 37 0 2 -9 -2 -26 -8
-37z"/>
<path d="M23607 21894 c-15 -14 -29 -43 -33 -63 -3 -20 -7 -41 -9 -46 -5 -17
-759 -559 -775 -558 -8 1 -30 5 -48 9 -67 13 -122 -35 -122 -109 0 -87 108
-128 181 -68 17 14 25 32 29 71 l5 51 384 278 c372 269 385 278 410 265 38
-20 74 -17 115 11 l36 24 362 -140 c200 -78 369 -143 376 -146 6 -3 12 -19 12
-35 0 -46 48 -88 100 -88 35 0 48 6 77 35 32 32 35 40 31 78 l-5 42 139 118
c119 102 138 123 138 148 0 16 -4 29 -8 29 -5 0 -74 -56 -154 -125 l-146 -124
-51 6 c-44 5 -57 2 -82 -16 l-31 -23 -370 144 -371 143 -18 41 c-22 53 -52 74
-105 74 -31 0 -48 -6 -67 -26z"/>
<path d="M21030 19950 l22 -30 699 0 c407 0 708 4 722 10 12 5 33 18 47 29
l25 21 -768 0 -768 0 21 -30z"/>
<path d="M23472 19957 c-12 -13 -22 -26 -22 -30 0 -4 236 -7 525 -7 l525 0 10
26 c6 14 10 27 10 30 0 2 -231 4 -513 4 l-514 0 -21 -23z"/>
<path d="M17410 17920 l0 -50 481 0 c538 0 494 -7 425 68 l-30 32 -438 0 -438
0 0 -50z"/>
<path d="M20680 17958 c0 -7 3 -30 6 -50 l7 -38 1384 0 1385 0 -6 23 c-4 12
-9 34 -12 50 l-6 27 -1379 0 c-1097 0 -1379 -3 -1379 -12z"/>
<path d="M26280 17234 c-58 -35 -107 -69 -109 -76 -4 -13 -3 -12 114 65 87 57
114 78 105 77 -3 -1 -52 -30 -110 -66z"/>
<path d="M27127 17259 c-32 -19 -238 -66 -357 -83 -258 -36 -523 -46 -720 -28
-215 20 -270 20 -270 1 0 -60 -164 -119 -336 -122 l-82 -1 -73 51 c-116 80
-204 119 -281 127 -38 4 -68 5 -68 4 0 -2 -16 -113 -34 -248 -85 -598 -144
-1301 -169 -1988 0 -10 -384 -12 -1904 -12 l-1903 0 0 33 c0 126 -31 658 -56
952 -29 349 -136 1241 -151 1255 -3 3 -8 -2 -11 -10 -3 -8 -21 -31 -41 -51
-32 -32 -43 -37 -106 -43 -38 -4 -83 -9 -100 -11 -73 -11 -852 -108 -965 -120
-251 -28 -529 -15 -680 31 -129 39 -252 121 -302 202 l-22 36 -18 -70 c-44
-174 -53 -269 -53 -559 0 -304 8 -381 65 -643 23 -105 30 -169 35 -295 3 -89
10 -211 15 -272 10 -111 15 -157 70 -625 16 -140 32 -295 36 -345 l5 -90 -112
-55 c-114 -56 -239 -133 -299 -186 -49 -43 -90 -103 -83 -121 5 -12 3 -14 -8
-8 -8 4 -11 5 -7 1 3 -4 118 -7 254 -6 183 0 250 4 256 13 5 7 8 8 8 1 0 -6
-3 -13 -6 -16 -3 -4 -7 -36 -10 -73 -2 -37 -6 -79 -8 -93 -3 -15 -7 -52 -11
-82 -3 -30 -10 -75 -16 -100 -12 -60 -122 -770 -159 -1030 -46 -327 -87 -748
-79 -815 4 -26 9 -30 60 -43 l57 -14 6 -59 c6 -50 4 -63 -13 -86 -31 -42 -44
-132 -39 -278 5 -137 24 -213 67 -274 11 -16 69 -57 128 -91 123 -72 205 -132
252 -186 18 -20 70 -93 115 -163 45 -69 99 -141 120 -159 82 -72 201 -112 331
-112 134 0 250 44 318 119 106 118 93 175 -84 356 -200 202 -316 384 -340 527
-26 157 -123 256 -255 261 -43 2 -44 3 -44 37 0 19 3 51 6 71 6 35 8 37 57 45
62 11 57 -2 92 239 38 262 78 479 146 792 34 153 67 307 74 343 19 94 74 312
79 318 3 2 92 0 198 -4 l193 -9 8 -285 c12 -418 12 -1090 -1 -1200 -12 -114
-4 -134 62 -151 37 -9 45 -15 50 -41 9 -48 7 -77 -8 -101 -34 -52 -47 -261
-26 -397 22 -139 57 -202 134 -243 36 -19 57 -22 186 -23 130 -1 152 -4 212
-27 82 -32 134 -61 258 -145 164 -112 263 -147 420 -146 207 2 356 79 406 211
16 40 16 46 0 88 -27 69 -99 128 -199 161 -230 76 -445 228 -519 366 -40 76
-109 153 -159 178 -21 11 -69 23 -106 28 l-68 7 4 40 c3 45 13 55 54 55 21 0
27 5 28 23 1 12 3 32 4 44 1 13 5 71 9 130 16 240 53 569 121 1064 25 179 45
329 45 332 0 3 422 3 938 0 926 -6 2093 6 2760 28 184 6 336 8 340 5 3 -4 25
-149 49 -324 79 -587 90 -680 139 -1270 5 -57 8 -62 32 -68 51 -11 52 -12 52
-59 l0 -45 -57 0 c-35 0 -75 -8 -100 -19 -57 -26 -128 -102 -165 -178 -73
-149 -341 -341 -552 -395 -86 -22 -176 -122 -176 -195 1 -67 72 -163 152 -204
54 -28 194 -59 263 -59 142 0 259 45 430 162 208 143 257 161 445 162 129 1
150 4 187 23 87 47 124 123 144 298 13 121 4 261 -22 330 -11 28 -19 73 -19
102 l0 52 43 12 c72 19 80 32 72 119 -16 174 -22 525 -13 805 5 165 12 413 16
550 l7 250 115 7 c167 11 173 15 19 17 l-136 1 -12 156 c-6 86 -19 192 -27
236 -8 44 -13 85 -11 92 3 8 52 10 164 8 l159 -3 27 -132 c45 -222 72 -348
152 -707 43 -190 86 -383 97 -430 35 -157 108 -568 139 -782 16 -117 35 -216
41 -219 6 -4 27 -10 48 -13 l37 -6 7 -61 c11 -107 12 -104 -39 -105 -112 -3
-199 -74 -235 -192 -11 -35 -20 -77 -20 -92 0 -40 -89 -209 -166 -317 -37 -51
-113 -140 -170 -199 -98 -100 -154 -183 -154 -226 0 -35 29 -88 75 -136 148
-159 469 -159 640 -1 25 23 78 95 118 158 98 159 195 254 349 345 64 37 124
76 132 85 57 63 92 229 83 398 -4 85 -10 113 -31 158 -22 43 -27 66 -25 115 3
69 4 70 87 90 37 8 52 17 52 28 0 43 -22 312 -36 452 -23 232 -86 686 -159
1140 -66 416 -88 575 -100 715 -8 99 8 351 41 635 13 118 29 256 34 305 5 50
19 171 31 270 11 99 24 279 28 400 7 185 12 237 35 330 55 232 70 367 70 660
1 279 -8 379 -52 564 -18 78 -25 87 -55 70z m-1170 -2785 c-2 -3 -20 3 -39 12
l-35 16 26 80 26 80 14 -92 c7 -50 11 -93 8 -96z m-1212 -504 c-3 -5 -2 -10 4
-10 5 0 11 6 14 13 8 23 24 -67 47 -258 12 -104 24 -202 27 -217 l6 -28 -2008
0 -2008 0 7 48 c3 26 18 134 31 241 14 107 27 196 29 198 1 2 865 3 1919 3
1273 0 1918 3 1922 10 3 5 8 10 11 10 3 0 2 -4 -1 -10z m-5089 -18 c-3 -5 1
-9 9 -9 8 0 12 4 9 9 -3 4 56 8 130 8 157 0 146 11 122 -120 -8 -41 -17 -124
-21 -185 -3 -60 -8 -127 -11 -147 l-6 -38 -185 0 -185 0 4 33 c4 31 86 420 94
445 2 6 13 12 24 12 12 0 19 -4 16 -8z"/>
<path d="M12100 16399 c-46 -9 -120 -21 -1305 -204 -368 -57 -933 -145 -1255
-195 -322 -50 -641 -100 -710 -110 -69 -11 -314 -50 -545 -87 -594 -94 -572
-95 -1300 20 -1204 189 -2422 377 -2447 377 -13 0 -18 -8 -18 -30 0 -112 -164
-242 -411 -328 -327 -114 -998 -171 -1318 -112 -66 12 -131 66 -205 170 -17
24 -18 19 -13 -175 7 -269 32 -444 143 -1009 136 -692 176 -973 175 -1239 -1
-189 -14 -264 -55 -296 -80 -65 -200 -199 -265 -297 -134 -201 -246 -441 -483
-1034 -242 -607 -400 -934 -578 -1203 l-68 -102 37 -22 c20 -13 40 -24 44 -26
4 -1 -6 -35 -23 -76 -82 -199 -82 -204 -84 -540 l-2 -303 25 -9 c13 -6 30 -8
37 -5 10 4 43 125 69 254 5 23 15 36 33 43 89 34 222 -111 316 -344 l39 -96
57 -25 c166 -75 536 -95 767 -41 81 19 96 40 91 130 -4 78 -31 131 -71 139
-12 2 -59 11 -104 19 -105 19 -177 53 -231 107 -54 55 -78 100 -97 187 -32
141 -121 314 -214 416 l-55 59 43 86 c108 219 255 479 434 767 129 207 136
218 497 760 338 509 471 725 562 911 l61 123 28 198 c16 109 40 279 55 378 14
99 26 180 27 181 1 1 47 -5 101 -14 l99 -17 44 -110 c96 -238 121 -383 88
-505 -32 -119 -47 -264 -46 -445 0 -99 3 -189 5 -200 2 -11 7 -51 11 -90 14
-140 68 -399 165 -795 99 -402 147 -627 171 -790 19 -131 16 -377 -5 -488 -20
-101 -15 -122 30 -122 61 0 69 -11 89 -122 20 -116 64 -281 93 -348 11 -25 36
-65 57 -90 20 -24 71 -113 112 -196 41 -84 83 -160 93 -169 13 -12 27 -15 49
-10 27 6 31 11 31 38 0 18 -11 81 -25 142 -30 132 -30 141 -6 155 71 37 240
-38 446 -200 83 -64 90 -67 197 -86 215 -38 468 17 613 133 64 51 110 131 102
179 -8 46 -52 106 -107 143 -38 25 -61 32 -140 41 -244 27 -439 123 -605 298
-76 80 -164 141 -250 173 -30 11 -57 24 -59 27 -8 13 -55 329 -86 573 -62 495
-108 1040 -141 1659 -10 205 -14 1048 -4 1058 3 3 71 -4 153 -16 183 -27 593
-90 635 -98 43 -7 837 -129 916 -140 20 -2 45 -7 56 -9 11 -2 111 -18 221 -34
111 -17 214 -32 230 -35 16 -3 50 -8 77 -11 l47 -7 0 51 c0 60 14 73 105 94
l60 14 3 106 c3 128 3 127 138 156 171 37 445 63 874 82 439 19 1598 3 1843
-26 l47 -6 0 40 c0 22 5 43 10 46 8 5 8 11 1 19 -6 7 -12 70 -13 141 l-3 129
-42 12 c-24 7 -55 20 -71 29 -30 18 -8 21 -637 -81 -199 -33 -229 -33 -260 -4
-22 21 -34 50 -20 50 3 0 16 -12 29 -27 18 -20 32 -27 57 -26 19 1 206 29 415
62 210 34 385 61 388 61 3 0 6 57 6 128 0 70 4 132 8 139 9 15 91 52 115 53
15 0 17 12 17 109 0 104 -1 109 -22 115 -13 3 -90 -5 -173 -19 -82 -13 -238
-38 -345 -55 -107 -17 -235 -37 -284 -45 -49 -8 -106 -15 -126 -15 -40 0 -90
31 -90 56 0 21 10 17 32 -11 13 -17 29 -25 51 -25 34 0 802 118 827 127 9 3
-4 12 -34 22 -72 25 -76 34 -76 187 0 130 0 133 26 153 14 11 68 30 120 42
l94 21 0 63 0 62 -52 -9 c-457 -73 -881 -138 -907 -138 -31 0 -81 36 -81 60 0
15 7 12 34 -15 15 -15 36 -25 53 -25 15 0 235 33 488 73 l460 73 3 44 c2 25 7
49 12 55 5 6 5 17 0 25 -6 8 -10 77 -10 152 0 156 0 155 92 183 l43 12 3 132
3 132 30 18 c92 56 543 109 1119 131 151 6 339 13 418 16 l142 6 0 84 c0 46
-3 84 -7 83 -5 -1 -28 -5 -53 -10z m-6865 -1102 c109 -62 119 -234 17 -305
-38 -27 -119 -52 -165 -52 -115 0 -210 122 -178 230 15 52 72 116 114 129 86
27 162 26 212 -2z m3885 -102 c0 -8 -12 -29 -27 -45 l-28 -31 -370 -58 c-272
-43 -377 -56 -395 -49 -33 13 -61 38 -54 50 3 5 17 -1 30 -13 14 -13 35 -22
52 -21 44 1 682 102 718 113 21 6 36 20 44 39 13 32 30 40 30 15z m-3400 -604
c0 -187 9 -217 72 -246 18 -8 249 -49 513 -90 263 -42 489 -78 501 -81 12 -3
31 -14 43 -25 12 -11 21 -17 21 -14 0 3 18 -4 41 -15 23 -12 39 -24 36 -27 -3
-3 -12 -1 -19 3 -7 5 -20 7 -29 6 -9 -2 -72 6 -140 18 -68 11 -308 50 -534 86
-225 35 -424 69 -441 74 -39 13 -68 44 -89 92 -12 29 -15 79 -15 229 0 191 0
192 20 174 18 -17 20 -31 20 -184z m3400 59 c0 -26 -31 -68 -57 -78 -15 -6
-189 -36 -385 -66 -373 -59 -384 -59 -422 -17 -24 27 -4 28 32 1 l27 -20 355
55 c195 31 370 62 387 70 20 9 35 24 39 40 6 24 24 35 24 15z m-4070 -165
c240 -38 280 -41 298 -23 9 9 12 9 12 0 0 -32 -49 -31 -290 7 -132 21 -243 41
-247 45 -9 9 -16 9 227 -29z m4070 -385 c0 -25 -31 -68 -57 -78 -40 -16 -734
-124 -758 -118 -22 6 -69 45 -62 52 2 3 20 -5 40 -16 l36 -21 358 56 c197 30
369 60 381 66 13 5 29 23 35 39 11 29 27 41 27 20z"/>
<path d="M38235 15100 c-22 -4 -62 -11 -90 -14 -52 -7 -304 -42 -890 -125
-192 -27 -417 -59 -500 -71 -82 -12 -163 -23 -180 -25 -528 -76 -529 -76 -810
-35 -77 11 -156 22 -175 25 -19 3 -66 10 -105 15 -38 6 -133 19 -210 30 -188
26 -211 29 -350 49 l-120 17 -5 -106 c-3 -58 -4 -159 -2 -226 l3 -121 62 -17
c110 -30 107 -26 107 -181 0 -129 -1 -135 -22 -149 -23 -14 -66 -28 -120 -40
l-28 -6 0 -120 0 -119 -27 -14 c-16 -8 -61 -22 -100 -32 l-73 -17 0 -79 0 -79
359 0 c613 0 1141 -28 1513 -81 162 -23 261 -51 282 -81 l15 -21 228 32 c285
40 499 71 538 76 25 4 956 136 1050 149 78 11 192 28 210 30 11 2 61 9 112 16
l92 13 -92 91 c-100 99 -197 219 -270 331 -44 70 -46 71 -91 73 -64 2 -119 34
-158 89 -30 43 -33 55 -33 120 0 65 3 76 33 119 l33 47 -25 91 c-32 111 -53
210 -62 294 -7 69 -8 70 -99 52z"/>
<path d="M38995 13559 c-132 -21 -575 -90 -984 -154 -642 -99 -796 -125 -744
-125 10 0 523 -79 2213 -341 725 -113 782 -120 880 -116 58 3 353 44 655 92
303 47 959 149 1459 226 501 77 912 141 914 143 5 5 -47 14 -903 146 -429 66
-850 131 -936 144 l-155 25 -155 -78 c-415 -209 -868 -271 -1324 -180 -185 37
-436 132 -597 226 -31 18 -62 32 -70 32 -7 -1 -121 -19 -253 -40z"/>
<path d="M37182 12637 c2 -350 5 -638 8 -640 3 -3 41 -10 85 -16 44 -6 91 -13
105 -16 14 -2 86 -14 160 -25 74 -11 146 -23 160 -25 14 -2 102 -16 195 -30
94 -14 181 -28 195 -30 34 -6 343 -54 455 -70 112 -17 421 -64 455 -70 14 -2
86 -13 160 -25 74 -11 162 -24 195 -30 33 -5 240 -38 460 -72 445 -68 537 -74
720 -45 107 17 313 48 660 101 94 15 181 29 194 31 13 2 45 7 70 10 25 4 69
10 96 15 28 5 100 16 160 25 107 16 335 52 385 60 14 3 54 9 90 14 130 19 348
53 495 76 83 13 179 29 215 34 128 19 441 67 515 80 l40 7 3 635 2 635 -732
-113 c-403 -62 -821 -126 -928 -143 -107 -16 -472 -73 -810 -125 -544 -85
-625 -96 -705 -91 -49 3 -452 62 -895 131 -443 69 -978 152 -1190 185 -777
121 -966 150 -993 156 l-27 6 2 -635z m242 144 c6 -5 133 -29 280 -53 147 -23
263 -44 258 -46 -12 -4 -459 65 -513 79 -38 10 -50 25 -48 62 2 17 3 16 6 -5
2 -14 10 -31 17 -37z m5098 -106 c66 -11 128 -80 128 -144 0 -69 -38 -121
-107 -147 -41 -16 -47 -16 -105 2 -106 32 -157 110 -129 197 14 41 58 85 97
97 28 8 39 8 116 -5z m-4499 -2 c-7 -2 -21 -2 -30 0 -10 3 -4 5 12 5 17 0 24
-2 18 -5z m60 -10 c-7 -2 -21 -2 -30 0 -10 3 -4 5 12 5 17 0 24 -2 18 -5z m65
-10 c-10 -2 -26 -2 -35 0 -10 3 -2 5 17 5 19 0 27 -2 18 -5z m65 -10 c-7 -2
-21 -2 -30 0 -10 3 -4 5 12 5 17 0 24 -2 18 -5z m-790 -61 c7 -5 122 -27 255
-48 134 -21 239 -40 233 -42 -15 -5 -473 68 -493 79 -12 7 -18 20 -17 42 2 29
2 30 6 5 2 -14 10 -31 16 -36z m850 51 c-7 -2 -21 -2 -30 0 -10 3 -4 5 12 5
17 0 24 -2 18 -5z m70 -10 c-7 -2 -21 -2 -30 0 -10 3 -4 5 12 5 17 0 24 -2 18
-5z m60 -10 c-7 -2 -21 -2 -30 0 -10 3 -4 5 12 5 17 0 24 -2 18 -5z m60 -10
c-7 -2 -21 -2 -30 0 -10 3 -4 5 12 5 17 0 24 -2 18 -5z m3533 -23 c78 -34 111
-136 68 -211 -11 -19 -39 -43 -67 -58 -44 -22 -52 -23 -100 -12 -99 22 -157
78 -157 153 0 129 117 188 256 128z m-3473 13 c-7 -2 -19 -2 -25 0 -7 3 -2 5
12 5 14 0 19 -2 13 -5z m237 -18 c-7 -9 -27 -14 -49 -13 l-36 1 38 4 c21 3 41
11 44 19 3 8 8 13 11 10 3 -3 -1 -12 -8 -21z m-167 8 c-7 -2 -21 -2 -30 0 -10
3 -4 5 12 5 17 0 24 -2 18 -5z m60 -10 c-7 -2 -21 -2 -30 0 -10 3 -4 5 12 5
17 0 24 -2 18 -5z m-680 -90 c-7 -2 -21 -2 -30 0 -10 3 -4 5 12 5 17 0 24 -2
18 -5z m60 -10 c-7 -2 -21 -2 -30 0 -10 3 -4 5 12 5 17 0 24 -2 18 -5z m65
-10 c-10 -2 -26 -2 -35 0 -10 3 -2 5 17 5 19 0 27 -2 18 -5z m65 -10 c-7 -2
-21 -2 -30 0 -10 3 -4 5 12 5 17 0 24 -2 18 -5z m60 -10 c-7 -2 -21 -2 -30 0
-10 3 -4 5 12 5 17 0 24 -2 18 -5z m65 -10 c-10 -2 -26 -2 -35 0 -10 3 -2 5
17 5 19 0 27 -2 18 -5z m65 -10 c-7 -2 -21 -2 -30 0 -10 3 -4 5 12 5 17 0 24
-2 18 -5z m60 -10 c-7 -2 -21 -2 -30 0 -10 3 -4 5 12 5 17 0 24 -2 18 -5z m60
-10 c-7 -2 -19 -2 -25 0 -7 3 -2 5 12 5 14 0 19 -2 13 -5z m-824 -63 c123 -19
219 -36 213 -38 -15 -5 -412 57 -439 68 -13 5 -23 14 -23 20 0 7 5 6 13 -2 8
-7 109 -28 236 -48z m894 53 c-7 -2 -21 -2 -30 0 -10 3 -4 5 12 5 17 0 24 -2
18 -5z m212 -13 c-10 -11 -29 -19 -44 -19 l-26 2 27 4 c14 2 32 11 38 19 7 8
15 14 18 14 3 0 -3 -9 -13 -20z m-152 3 c-7 -2 -21 -2 -30 0 -10 3 -4 5 12 5
17 0 24 -2 18 -5z m60 -10 c-7 -2 -19 -2 -25 0 -7 3 -2 5 12 5 14 0 19 -2 13
-5z m249 -128 c3 -111 5 -127 24 -146 18 -18 71 -29 360 -75 267 -42 344 -58
366 -74 15 -11 33 -20 39 -20 7 0 10 -2 7 -5 -3 -4 -131 15 -284 40 -154 25
-310 50 -349 56 -181 28 -185 33 -185 215 0 75 4 134 9 134 5 0 11 -56 13
-125z m-989 48 c-7 -2 -21 -2 -30 0 -10 3 -4 5 12 5 17 0 24 -2 18 -5z m60
-10 c-7 -2 -21 -2 -30 0 -10 3 -4 5 12 5 17 0 24 -2 18 -5z m65 -10 c-10 -2
-26 -2 -35 0 -10 3 -2 5 17 5 19 0 27 -2 18 -5z m65 -10 c-7 -2 -21 -2 -30 0
-10 3 -4 5 12 5 17 0 24 -2 18 -5z m60 -10 c-7 -2 -21 -2 -30 0 -10 3 -4 5 12
5 17 0 24 -2 18 -5z m65 -10 c-10 -2 -26 -2 -35 0 -10 3 -2 5 17 5 19 0 27 -2
18 -5z m65 -10 c-7 -2 -21 -2 -30 0 -10 3 -4 5 12 5 17 0 24 -2 18 -5z m60
-10 c-7 -2 -21 -2 -30 0 -10 3 -4 5 12 5 17 0 24 -2 18 -5z m60 -10 c-7 -2
-19 -2 -25 0 -7 3 -2 5 12 5 14 0 19 -2 13 -5z m65 -10 c-10 -2 -26 -2 -35 0
-10 3 -2 5 17 5 19 0 27 -2 18 -5z m65 -10 c-7 -2 -21 -2 -30 0 -10 3 -4 5 12
5 17 0 24 -2 18 -5z m193 -19 c-11 -8 -27 -14 -35 -13 -9 0 -4 5 12 11 15 5
27 15 27 21 0 5 3 7 7 3 5 -4 -1 -14 -11 -22z m-133 9 c-7 -2 -21 -2 -30 0
-10 3 -4 5 12 5 17 0 24 -2 18 -5z m65 -10 c-10 -2 -26 -2 -35 0 -10 3 -2 5
17 5 19 0 27 -2 18 -5z"/>
<path d="M32165 12637 c-110 -57 -335 -172 -500 -256 -165 -85 -363 -186 -440
-226 -77 -40 -275 -141 -441 -225 l-301 -153 -334 170 c-184 94 -599 304 -924
468 -324 164 -596 303 -603 308 -10 8 -65 -15 -212 -88 -109 -54 -197 -102
-195 -106 3 -3 67 -42 142 -84 101 -58 1606 -915 2089 -1191 l40 -23 240 136
c131 74 592 335 1024 580 432 245 838 475 902 512 65 36 118 68 118 71 0 4
-346 183 -400 207 -3 1 -95 -44 -205 -100z"/>
<path d="M29265 8994 c-434 -68 -1242 -193 -1794 -279 -864 -133 -1057 -165
-1005 -165 11 0 1399 -214 2884 -445 912 -142 1017 -156 1135 -156 114 0 198
10 680 85 962 149 3337 516 3349 517 30 3 -138 30 -1002 164 -516 79 -1317
203 -1781 275 -464 72 -845 129 -846 128 -1 -2 -85 -151 -185 -333 -100 -181
-190 -343 -200 -358 l-17 -29 -126 229 c-245 442 -272 488 -287 489 -8 1 -370
-54 -805 -122z"/>
<path d="M26360 7705 c0 -519 4 -836 10 -840 7 -4 2689 -422 2890 -450 19 -3
46 -7 60 -10 14 -2 43 -7 65 -10 22 -3 51 -7 65 -10 14 -2 43 -7 65 -10 22 -3
51 -7 65 -10 14 -2 41 -6 60 -9 114 -16 262 -38 310 -46 30 -5 69 -11 85 -14
17 -3 95 -15 175 -27 255 -41 342 -36 920 54 272 43 510 79 529 82 19 3 43 7
55 10 12 2 41 7 66 10 25 3 54 7 65 9 11 2 40 7 65 10 25 3 54 8 65 10 11 2
40 7 65 10 25 3 54 8 65 10 21 4 87 14 140 22 17 2 41 6 55 9 14 2 45 7 70 10
25 3 88 13 140 21 52 8 109 17 125 19 17 3 352 54 745 115 393 61 821 126 950
146 129 19 245 39 258 44 l22 10 0 834 0 834 -32 -9 c-18 -5 -460 -75 -983
-155 -522 -80 -1062 -163 -1200 -184 -376 -59 -922 -143 -1322 -206 -197 -30
-385 -60 -418 -65 -33 -5 -108 -9 -168 -9 -110 0 -210 13 -827 110 -173 27
-490 77 -705 110 -214 33 -534 83 -710 110 -176 28 -509 79 -740 115 -231 36
-447 69 -480 75 -62 10 -133 21 -420 65 -93 14 -187 30 -207 34 l-38 9 0 -833z
m300 232 c0 -50 12 -54 280 -97 687 -110 1443 -230 1451 -230 5 0 18 9 30 21
11 11 24 18 27 14 10 -9 -36 -45 -58 -45 -19 0 -1651 257 -1685 265 -11 3 -26
9 -33 13 -16 11 -34 82 -21 82 5 0 9 -10 9 -23z m6737 -193 c91 -25 153 -122
139 -216 -19 -128 -143 -196 -277 -153 -117 37 -169 98 -169 195 0 119 97 208
210 194 25 -3 68 -12 97 -20z m-6737 -73 c0 -51 -109 -29 1164 -232 l568 -91
24 23 c13 12 24 17 24 11 0 -6 -11 -19 -25 -28 -27 -17 -2 -20 -430 47 -758
118 -1311 210 -1321 221 -18 18 -30 78 -15 78 6 0 11 -13 11 -29z m6003 -33
c84 -30 145 -127 133 -210 -9 -57 -36 -101 -86 -137 -58 -42 -109 -47 -194
-21 -89 28 -111 43 -142 95 -56 96 -20 223 76 273 38 20 55 23 110 18 36 -3
82 -11 103 -18z m-5995 -262 c18 -16 136 -36 1182 -201 l535 -85 27 20 c16 11
28 16 28 11 0 -6 -11 -18 -25 -27 -27 -18 13 -22 -590 72 -920 144 -1147 182
-1165 199 -13 12 -19 29 -19 49 2 29 2 29 6 5 2 -15 12 -34 21 -43z m1962
-182 c5 -156 12 -182 54 -209 13 -9 185 -41 427 -80 469 -75 469 -75 469 -86
0 -5 6 -8 13 -6 6 1 11 -4 9 -11 -1 -8 1 -11 5 -9 5 3 22 -1 38 -8 l30 -13
-30 -1 c-17 -1 -112 12 -210 29 -99 16 -308 50 -465 75 -306 49 -321 54 -352
116 -15 28 -18 62 -18 197 0 127 3 163 13 160 8 -3 13 -47 17 -154z"/>
</g>
</svg>
