<?xml version="1.0" standalone="no"?>
<!DOCTYPE svg PUBLIC "-//W3C//DTD SVG 20010904//EN"
 "http://www.w3.org/TR/2001/REC-SVG-20010904/DTD/svg10.dtd">
<svg version="1.0" xmlns="http://www.w3.org/2000/svg"
 width="100.000000pt" height="100.000000pt" viewBox="0 0 100.000000 100.000000"
 preserveAspectRatio="xMidYMid meet">

<g transform="translate(0.000000,100.000000) scale(0.100000,-0.100000)"
fill="#000000" stroke="none">
<path d="M453 739 c-54 -10 -91 -30 -129 -71 -51 -54 -68 -96 -69 -169 0 -102
46 -174 145 -227 46 -25 139 -23 198 3 65 30 73 47 37 85 l-27 28 -34 -20
c-27 -16 -47 -19 -91 -16 -50 4 -60 9 -95 46 -34 37 -38 47 -38 94 0 66 25
110 79 138 51 25 86 25 136 0 l39 -20 28 27 c36 34 35 43 -6 70 -42 27 -118
41 -173 32z"/>
</g>
</svg>
